<?xml version="1.0" standalone="no"?>
<!DOCTYPE svg PUBLIC "-//W3C//DTD SVG 20010904//EN"
 "http://www.w3.org/TR/2001/REC-SVG-20010904/DTD/svg10.dtd">
<svg version="1.0" xmlns="http://www.w3.org/2000/svg"
 width="56.000000pt" height="33.000000pt" viewBox="0 0 56.000000 33.000000"
 preserveAspectRatio="xMidYMid meet">

<g transform="translate(0.000000,33.000000) scale(0.100000,-0.100000)"
fill="#000000" stroke="none">
<path d="M220 165 l155 -155 60 0 60 0 -155 155 -155 155 -60 0 -60 0 155
-155z"/>
<path d="M405 170 c82 -82 151 -150 152 -150 2 0 3 68 3 150 l0 150 -40 0 -40
0 0 -40 c0 -22 -4 -40 -8 -40 -4 0 -26 18 -47 40 -38 39 -41 40 -104 40 l-66
0 150 -150z"/>
<path d="M0 162 l0 -152 40 0 40 0 0 40 c0 22 3 40 7 40 4 0 26 -18 49 -41 40
-39 42 -40 103 -37 l61 3 -150 150 -150 150 0 -153z"/>
</g>
</svg>
